<svg xmlns="http://www.w3.org/2000/svg" width="65" height="65" viewBox="0 0 65 65">
    <g fill="none" fill-rule="evenodd">
        <rect width="65" height="65" fill="#007FFF" rx="2"/>
        <path fill="#FFF" d="M31.016 40.4c.652-.626 1.77-.626 2.515-.09.652.717.652 1.79 0 2.417l-2.143 2.058c-3.073 2.953-8.01 2.953-11.083 0C18.83 43.376 18 41.46 18 39.461c0-2 .83-3.915 2.305-5.325l5.123-4.921C26.894 27.797 28.888 27 30.969 27c2.08 0 4.075.797 5.542 2.215.652.715.652 1.79 0 2.416-.745.626-1.863.626-2.515 0a4.473 4.473 0 0 0-3.073-1.253c-1.211 0-2.236.447-3.074 1.253l-5.122 4.921a4.096 4.096 0 0 0 0 5.907A4.473 4.473 0 0 0 25.8 43.71c1.21 0 2.235-.447 3.074-1.252l2.142-2.059zm13.68-20.185c3.072 2.863 3.072 7.695 0 10.648l-5.119 4.922c-3.071 2.953-8.005 2.953-11.076 0l-.093-.09a1.609 1.609 0 0 1 .093-2.236c.745-.627 1.861-.627 2.513 0a4.468 4.468 0 0 0 3.072 1.252c1.21 0 2.233-.447 3.071-1.252l5.12-4.922a4.098 4.098 0 0 0 0-5.906 4.468 4.468 0 0 0-3.072-1.253c-1.21 0-2.234.447-3.072 1.253l-2.14 2.058c-.745.626-1.862.626-2.514 0-.651-.716-.651-1.79 0-2.416l2.141-2.058C35.086 18.797 37.08 18 39.158 18c2.08 0 4.073.797 5.538 2.215z"/>
    </g>
</svg>
