<?xml version="1.0" standalone="no"?><!DOCTYPE svg PUBLIC "-//W3C//DTD SVG 1.1//EN" "http://www.w3.org/Graphics/SVG/1.1/DTD/svg11.dtd" [<!ENTITY nbsp " ">]><svg data-noselect="" viewBox="156.05372758478 103.51134544253372 521.2962954729501 390.97222160471256" width="521.2962954729501" ref="svg_canvas" height="390.97222160471256" preserveAspectRatio="none" version="1.1" xmlns="http://www.w3.org/2000/svg" style="background: #ffffff;"><g id="shape_oWzHErbLPI" ref="shape_oWzHErbLPI" key="shape_oWzHErbLPI" transform="translate(236.05372758478,238.99745624489) rotate(0,60,60) scale(1,1)" style="cursor:move;display:inline;opacity:1;" filter="">
            <g style="display:inline"><rect fill="rgba(0,0,0,0)" width="140" height="140" x="-10" y="-10"></rect><svg version="1.1" id="图层_1" xmlns="http://www.w3.org/2000/svg" xmlns:xlink="http://www.w3.org/1999/xlink" x="0px" y="0px" viewBox="0 0 283.46 283.46" style="enable-background:new 0 0 283.46 283.46;" xml:space="preserve" width="120" height="120" preserveAspectRatio="none" data-parent="shape_oWzHErbLPI">
<path style="" d="M245.535,263.029c-40.174,34.387-119.224,7.951-176.552-59.043S-2.259,54.8,37.931,20.429
	C72.686-9.325,136.555,6.466,190.275,54.656C152.137,26.809,110.6,19.58,86.73,40.003c-31.181,26.692-20.392,90.464,24.111,142.453
	c44.487,52.005,105.838,72.509,137.019,45.833c13.274-11.366,18.949-29.449,17.634-50.482
	C272.9,213.365,266.76,244.866,245.535,263.029z" fill="#FFC444"></path>
</svg></g>
        </g><g id="shape_KClOY4YSnr" ref="shape_KClOY4YSnr" key="shape_KClOY4YSnr" transform="translate(286.91200172551,265.00994104261) rotate(0,103,41.8635) scale(1,1)" style="cursor:move;display:inline;opacity:1;" filter="">
            <g style="display:inline"><svg xmlns="http://www.w3.org/2000/svg" version="1.1" xmlns:xlink="http://www.w3.org/1999/xlink" width="150" height="63.168000000000006" viewBox="0 0 150 63.168000000000006" preserveAspectRatio="none" data-parent="shape_KClOY4YSnr"><rect fill="rgba(0,0,0,0)" width="150" height="63.168000000000006"></rect><g data-width="134" transform=""><path d="M4.47 9.26L4.47-33.83L9.45-33.83L9.45 9.26L4.47 9.26ZM15.25-29.11L10.33-37.36L14.55-39.88L19.47-31.69L15.25-29.11ZM53.74-36.35L53.74-37.48L58.65-37.48L58.65 3.59Q58.65 5.92 57.02 7.56Q55.38 9.20 52.98 9.20L52.98 9.20L47.75 9.20L47.75 4.28L52.98 4.28Q53.74 4.28 53.74 3.59L53.74 3.59L53.74-31.44L21.55-31.44L21.55-36.35L53.74-36.35ZM23.12-29.99L27.53-24.19L26.33-23.25L33.89-23.25L39.19-30.05L43.09-26.96L40.19-23.25L42.34-23.25L42.34-24.19L47.31-24.19L47.31-12.41Q47.31-10.08 45.64-8.41Q43.97-6.74 41.64-6.74L41.64-6.74L39.82-6.74L39.82-1.70L44.92-1.70Q45.61-1.70 45.61-2.39L45.61-2.39L45.61-5.42L50.53-5.42L50.53-2.39Q50.53-0.06 48.89 1.61Q47.25 3.28 44.92 3.28L44.92 3.28L34.90 3.28L34.90-6.74L27.22-6.74Q26.02-3.72 23.72-1.70Q21.42 0.32 19.12 1.48Q16.82 2.65 15.06 3.15Q13.29 3.65 13.10 3.72L13.10 3.72L12.10-1.13Q12.10-1.13 13.17-1.42Q14.24-1.70 15.72-2.36Q17.20-3.02 18.84-4.09Q20.48-5.17 21.61-6.74L21.61-6.74L15.18-6.74L15.18-23.25L21.99-23.25L19.15-27.03L23.12-29.99ZM42.34-12.41L42.34-18.33L20.16-18.33L20.16-11.72L41.64-11.72Q42.34-11.72 42.34-12.41L42.34-12.41Z" transform="translate(0 42) skewX(-14)" fill="#318FB4" stroke="#318FB4" stroke-linecap="square" stroke-linejoin="square" stroke-width="0.105" data-glyph-w="67" data-glyph-h="62.811" data-glyph-ascender="42.084" data-glyph-descender="-20.727"></path><path d="M55.19-19.03L55.19-14.11L34.08-14.11L34.08 3.40Q34.08 5.73 32.45 7.40Q30.81 9.07 28.41 9.07L28.41 9.07L21.29 9.07L21.29 4.09L28.41 4.09Q29.17 4.09 29.17 3.40L29.17 3.40L29.17-14.11L6.87-14.11L9.45-36.92L41.45-36.92Q44.10-36.92 46.37-37.33Q48.64-37.74 50.27-38.24Q51.91-38.74 52.89-39.15Q53.87-39.56 53.87-39.56L53.87-39.56L56.07-35.15Q55.94-35.09 54.84-34.59Q53.74-34.08 51.79-33.52Q49.83-32.95 47.19-32.48Q44.54-32.00 41.45-32.00L41.45-32.00L13.86-32.00L12.41-19.03L29.17-19.03L29.17-26.59L34.08-26.59L34.08-19.03L55.19-19.03ZM46.56-11.84L57.65 6.17L53.42 8.76L42.34-9.26L46.56-11.84ZM7.69 8.19L4.28 4.60Q7.25 1.89 9.39-0.95Q11.53-3.78 12.95-6.08Q14.36-8.38 15.09-9.86Q15.81-11.34 15.81-11.40L15.81-11.40L20.35-9.51Q20.29-9.32 19.53-7.69Q18.77-6.05 17.20-3.53Q15.62-1.01 13.26 2.08Q10.90 5.17 7.69 8.19L7.69 8.19Z" transform="translate(67 42) skewX(-14)" fill="#318FB4" stroke="#318FB4" stroke-linecap="square" stroke-linejoin="square" stroke-width="0.105" data-glyph-w="67" data-glyph-h="62.811" data-glyph-ascender="42.084" data-glyph-descender="-20.727"></path></g></svg></g>
        </g><g id="shape_vGQTpRVMBj" ref="shape_vGQTpRVMBj" key="shape_vGQTpRVMBj" transform="translate(351.35002305773,318.71846531056) rotate(0,109.65485185185,18.1395) scale(1,1)" style="cursor:move;display:inline;opacity:1;" filter="">
            <g style="display:inline"><svg xmlns="http://www.w3.org/2000/svg" version="1.1" xmlns:xlink="http://www.w3.org/1999/xlink" width="246" height="37.144000000000005" viewBox="0 0 246 37.144000000000005" preserveAspectRatio="none" data-parent="shape_vGQTpRVMBj"><rect fill="rgba(0,0,0,0)" width="246" height="37.144000000000005"></rect><g data-width="236.75600000000003" transform=""><path d="M19.00-13.69C19.00-18.21 16.65-20.27 10.35-20.27L2.81-20.27L2.81 0L6.24 0L6.24-6.82L9.83-6.82L10.73-6.82L15.57 0L19.92 0L14.62-7.37C17.43-8.21 19.00-10.09 19.00-13.69ZM15.49-13.69C15.49-11.25 14.59-9.92 10.50-9.92L6.24-9.92L6.24-17.17L10.59-17.17C14.21-17.17 15.49-16.41 15.49-13.69Z" transform="translate(0 28) skewX(-14)" fill="rgb(102, 102, 102)" stroke="rgb(102, 102, 102)" stroke-linecap="square" stroke-linejoin="square" stroke-width="0.048" data-glyph-w="21.112000000000002" data-glyph-h="35.351" data-glyph-ascender="28.072000000000003" data-glyph-descender="-7.279000000000001"></path><path d="M17.05-20.27L2.81-20.27L2.81 0L17.40 0L17.40-3.22L6.24-3.22L6.24-8.64L15.95-8.64L15.95-11.69L6.24-11.69L6.24-17.05L17.05-17.05Z" transform="translate(21.112000000000002 28) skewX(-14)" fill="rgb(102, 102, 102)" stroke="rgb(102, 102, 102)" stroke-linecap="square" stroke-linejoin="square" stroke-width="0.048" data-glyph-w="18.966" data-glyph-h="35.351" data-glyph-ascender="28.072000000000003" data-glyph-descender="-7.279000000000001"></path><path d="M5.68-4.61L15.83-4.61L17.86 0L21.52 0L12.59-20.27L8.93-20.27L0 0L3.65 0ZM14.44-7.77L7.08-7.77L10.76-16.12Z" transform="translate(40.078 28) skewX(-14)" fill="rgb(102, 102, 102)" stroke="rgb(102, 102, 102)" stroke-linecap="square" stroke-linejoin="square" stroke-width="0.048" data-glyph-w="21.518" data-glyph-h="35.351" data-glyph-ascender="28.072000000000003" data-glyph-descender="-7.279000000000001"></path><path d="M21.08-10.15C21.08-16.50 17.11-20.27 9.77-20.27L2.81-20.27L2.81 0L9.54 0C17.69 0 21.08-4.29 21.08-10.15ZM17.63-10.15C17.63-5.57 14.91-3.22 10.03-3.22L6.24-3.22L6.24-17.11L9.66-17.11C15.23-17.11 17.63-14.47 17.63-10.15Z" transform="translate(61.596000000000004 28) skewX(-14)" fill="rgb(102, 102, 102)" stroke="rgb(102, 102, 102)" stroke-linecap="square" stroke-linejoin="square" stroke-width="0.048" data-glyph-w="22.678" data-glyph-h="35.351" data-glyph-ascender="28.072000000000003" data-glyph-descender="-7.279000000000001"></path><path d="M2.81-20.27L2.81 0L6.24 0L6.24-20.27Z" transform="translate(84.274 28) skewX(-14)" fill="rgb(102, 102, 102)" stroke="rgb(102, 102, 102)" stroke-linecap="square" stroke-linejoin="square" stroke-width="0.048" data-glyph-w="9.048" data-glyph-h="35.351" data-glyph-ascender="28.072000000000003" data-glyph-descender="-7.279000000000001"></path><path d="M18.01-5.13L6.24-20.27L2.81-20.27L2.81 0L6.24 0L6.24-14.79L17.72 0L21.43 0L21.43-20.27L18.01-20.27Z" transform="translate(93.322 28) skewX(-14)" fill="rgb(102, 102, 102)" stroke="rgb(102, 102, 102)" stroke-linecap="square" stroke-linejoin="square" stroke-width="0.048" data-glyph-w="24.244" data-glyph-h="35.351" data-glyph-ascender="28.072000000000003" data-glyph-descender="-7.279000000000001"></path><path d="M16.85-9.86L16.85-4.29C15.49-3.42 13.86-3.05 12.09-3.05C8.27-3.05 5.08-5.74 5.08-10.21C5.08-14.62 8.32-17.40 12.33-17.40C14.36-17.40 15.86-17.02 17.52-15.60L19.34-18.21C17.69-19.66 15.40-20.76 12.18-20.76C6.24-20.76 1.51-16.27 1.51-10.27C1.51-4.12 6.12 0.23 12.06 0.23C15.86 0.23 18.59-1.07 20.27-2.93L20.27-9.86Z" transform="translate(117.566 28) skewX(-14)" fill="rgb(102, 102, 102)" stroke="rgb(102, 102, 102)" stroke-linecap="square" stroke-linejoin="square" stroke-width="0.048" data-glyph-w="21.953" data-glyph-h="35.351" data-glyph-ascender="28.072000000000003" data-glyph-descender="-7.279000000000001"></path><path d="" transform="translate(139.519 28) skewX(-14)" fill="rgb(102, 102, 102)" stroke="rgb(102, 102, 102)" stroke-linecap="square" stroke-linejoin="square" stroke-width="0.048" data-glyph-w="11.542" data-glyph-h="29" data-glyph-ascender="25.52" data-glyph-descender="-3.48"></path><path d="M2.81 0L6.24 0L6.24-8.29L16.30-8.29L16.30 0L19.72 0L19.72-20.27L16.30-20.27L16.30-11.48L6.24-11.48L6.24-20.27L2.81-20.27Z" transform="translate(151.061 28) skewX(-14)" fill="rgb(102, 102, 102)" stroke="rgb(102, 102, 102)" stroke-linecap="square" stroke-linejoin="square" stroke-width="0.048" data-glyph-w="22.533" data-glyph-h="35.351" data-glyph-ascender="28.072000000000003" data-glyph-descender="-7.279000000000001"></path><path d="M12.18-17.63C16.24-17.63 19.34-14.33 19.34-10.27C19.34-6.24 16.24-2.93 12.18-2.93C8.12-2.93 5.02-6.24 5.02-10.27C5.02-14.33 8.12-17.63 12.18-17.63ZM12.18 0.20C18.18 0.20 22.85-4.29 22.85-10.29C22.85-16.27 18.18-20.76 12.18-20.76C6.18-20.76 1.51-16.27 1.51-10.29C1.51-4.29 6.18 0.20 12.18 0.20Z" transform="translate(173.594 28) skewX(-14)" fill="rgb(102, 102, 102)" stroke="rgb(102, 102, 102)" stroke-linecap="square" stroke-linejoin="square" stroke-width="0.048" data-glyph-w="24.360000000000003" data-glyph-h="35.351" data-glyph-ascender="28.072000000000003" data-glyph-descender="-7.279000000000001"></path><path d="M18.62-13.25C18.62-17.78 16.07-20.27 9.77-20.27L2.81-20.27L2.81 0L6.24 0L6.24-5.95L9.83-5.95C15.63-5.95 18.62-7.98 18.62-13.25ZM15.11-13.25C15.11-10.88 14.30-9.05 10.21-9.05L6.24-9.05L6.24-17.17L9.71-17.17C13.28-17.17 15.11-16.27 15.11-13.25Z" transform="translate(197.954 28) skewX(-14)" fill="rgb(102, 102, 102)" stroke="rgb(102, 102, 102)" stroke-linecap="square" stroke-linejoin="square" stroke-width="0.048" data-glyph-w="19.836000000000002" data-glyph-h="35.351" data-glyph-ascender="28.072000000000003" data-glyph-descender="-7.279000000000001"></path><path d="M17.05-20.27L2.81-20.27L2.81 0L17.40 0L17.40-3.22L6.24-3.22L6.24-8.64L15.95-8.64L15.95-11.69L6.24-11.69L6.24-17.05L17.05-17.05Z" transform="translate(217.79000000000002 28) skewX(-14)" fill="rgb(102, 102, 102)" stroke="rgb(102, 102, 102)" stroke-linecap="square" stroke-linejoin="square" stroke-width="0.048" data-glyph-w="18.966" data-glyph-h="35.351" data-glyph-ascender="28.072000000000003" data-glyph-descender="-7.279000000000001"></path></g></svg></g>
        </g></svg>
